<?xml version="1.0" encoding="utf-8"?>
<!-- Generator: Adobe Illustrator 24.3.0, SVG Export Plug-In . SVG Version: 6.00 Build 0)  -->
<svg version="1.1" id="ad1dd13e-2ec4-4c24-88e7-d38d592282c0"
	 xmlns="http://www.w3.org/2000/svg" xmlns:xlink="http://www.w3.org/1999/xlink" x="0px" y="0px" viewBox="0 0 760 260"
	 style="enable-background:new 0 0 760 260;" xml:space="preserve">
<style type="text/css">
	.st0{fill:#F2F2F2;}
	.st1{fill:#FFFFFF;}
	.st2{fill:#E6E6E6;}
	.st3{fill:#00B0FF;}
	.st4{fill:#CCCCCC;}
</style>
<g>
	<path class="st0" d="M414.5,6.3H278.8c-2.6,0-4.8,2.1-4.8,4.8v183.3c0,2.6,2.1,4.8,4.8,4.8h135.6c2.6,0,4.8-2.1,4.8-4.8V11.1
		C419.2,8.4,417.1,6.3,414.5,6.3z"/>
	<path class="st1" d="M283,12.2c-1.8,0-3.3,1.5-3.3,3.4v174.3c0,1.8,1.4,3.3,3.3,3.4h127.2c1.8,0,3.3-1.5,3.3-3.4V15.5
		c0-1.8-1.4-3.3-3.3-3.4H283z"/>
	<path class="st2" d="M289.7,20.2c-1.2,0-2.2,1.1-2.2,2.5v24c0,1.4,1,2.5,2.2,2.5h114c1.2,0,2.2-1.1,2.2-2.5v-24
		c0-1.4-1-2.5-2.2-2.5H289.7z"/>
	<path class="st2" d="M289.7,60.8c-1.2,0-2.2,1-2.2,2.3v51.3c0,1.2,1,2.2,2.2,2.3h114c1.2,0,2.2-1,2.2-2.3V63.1c0-1.2-1-2.2-2.2-2.3
		H289.7z"/>
	<rect x="301.6" y="23.6" class="st1" width="90.2" height="5.1"/>
	<rect x="301.7" y="34.4" class="st1" width="90.2" height="2.4"/>
	<rect x="301.7" y="38.6" class="st1" width="90.2" height="2.4"/>
	<rect x="301.7" y="42.9" class="st1" width="90.2" height="2.4"/>
	<path class="st1" d="M355.1,116.7h41.5c0.7,0,1.3-0.6,1.3-1.3c0-0.4-0.1-0.7-0.4-0.9L371,87.9c-0.5-0.5-1.4-0.5-1.9,0l-6.6,6.6
		c-1.1,1.1-2.9,1.1-4,0c0,0,0,0,0,0l-20.7-20.7c-0.5-0.5-1.4-0.5-1.9,0l-40.5,40.5c-0.5,0.5-0.5,1.4,0,1.9c0.3,0.3,0.6,0.4,0.9,0.4
		h58.7L355.1,116.7z"/>
	<circle class="st1" cx="305.8" cy="72.9" r="5.1"/>
	<path class="st2" d="M289.7,128.6c-1.2,0-2.2,1-2.2,2.3v51.3c0,1.2,1,2.2,2.2,2.3h114c1.2,0,2.2-1,2.2-2.3v-51.3
		c0-1.2-1-2.2-2.2-2.3H289.7z"/>
	<path class="st1" d="M355.1,184.5h41.5c0.7,0,1.3-0.6,1.3-1.3c0-0.4-0.1-0.7-0.4-0.9L371,155.7c-0.5-0.5-1.4-0.5-1.9,0l-6.6,6.6
		c-1.1,1.1-2.9,1.1-4,0c0,0,0,0,0,0l-20.7-20.7c-0.5-0.5-1.4-0.5-1.9,0l-40.5,40.5c-0.5,0.5-0.5,1.4,0,1.9c0.3,0.3,0.6,0.4,0.9,0.4
		h58.7L355.1,184.5z"/>
	<circle class="st1" cx="305.8" cy="140.7" r="5.1"/>
	<path class="st2" d="M326.5,48.5c-1.8,0-3.3,1.5-3.3,3.3V235c0,1.8,1.5,3.3,3.3,3.3h135.6c1.8,0,3.3-1.5,3.3-3.3V51.7
		c0-1.8-1.5-3.3-3.3-3.3H326.5z"/>
	<path class="st1" d="M330.5,53.6c-1.8,0-3.3,1.5-3.3,3.4v174.3c0,1.8,1.4,3.3,3.3,3.4h127.2c1.8,0,3.3-1.5,3.3-3.4V57
		c0-1.8-1.4-3.3-3.3-3.4H330.5z"/>
	<path class="st3" d="M350.4,78.9c-0.8,0-1.5,0.7-1.5,1.5v6.7c0,0.8,0.7,1.5,1.5,1.5h86.5c0.8,0,1.5-0.7,1.5-1.5v-6.7
		c0-0.8-0.7-1.5-1.5-1.5H350.4z"/>
	<path class="st4" d="M349.9,101.2c-0.2,0-0.4,0.2-0.4,0.4v2.6c0,0.2,0.2,0.4,0.4,0.4h88c0.2,0,0.4-0.2,0.4-0.4v-2.6
		c0-0.2-0.2-0.4-0.4-0.4H349.9z"/>
	<path class="st4" d="M349.9,109.7c-0.2,0-0.4,0.2-0.4,0.4v2.6c0,0.2,0.2,0.4,0.4,0.4h88c0.2,0,0.4-0.2,0.4-0.4v-2.6
		c0-0.2-0.2-0.4-0.4-0.4H349.9z"/>
	<path class="st4" d="M349.9,118.3c-0.2,0-0.4,0.2-0.4,0.4v2.6c0,0.2,0.2,0.4,0.4,0.4h88c0.2,0,0.4-0.2,0.4-0.4v-2.6
		c0-0.2-0.2-0.4-0.4-0.4H349.9z"/>
	<path class="st4" d="M349.7,135.3c-0.2,0-0.4,0.2-0.4,0.4v2.6c0,0.2,0.2,0.4,0.4,0.4h88c0.2,0,0.4-0.2,0.4-0.4v-2.6
		c0-0.2-0.2-0.4-0.4-0.4H349.7z"/>
	<path class="st4" d="M349.7,143.9c-0.2,0-0.4,0.2-0.4,0.4v2.6c0,0.2,0.2,0.4,0.4,0.4h88c0.2,0,0.4-0.2,0.4-0.4v-2.6
		c0-0.2-0.2-0.4-0.4-0.4H349.7z"/>
	<path class="st4" d="M349.7,152.4c-0.2,0-0.4,0.2-0.4,0.4v2.6c0,0.2,0.2,0.4,0.4,0.4h88c0.2,0,0.4-0.2,0.4-0.4v-2.6
		c0-0.2-0.2-0.4-0.4-0.4H349.7z"/>
	<path class="st4" d="M349.7,161c-0.2,0-0.4,0.2-0.4,0.4v2.6c0,0.2,0.2,0.4,0.4,0.4h88c0.2,0,0.4-0.2,0.4-0.4v-2.6
		c0-0.2-0.2-0.4-0.4-0.4H349.7z"/>
	<path class="st4" d="M349.7,169.5c-0.2,0-0.4,0.2-0.4,0.4v2.6c0,0.2,0.2,0.4,0.4,0.4h88c0.2,0,0.4-0.2,0.4-0.4v-2.6
		c0-0.2-0.2-0.4-0.4-0.4H349.7z"/>
	<path class="st4" d="M349.7,178.1c-0.2,0-0.4,0.2-0.4,0.4v2.6c0,0.2,0.2,0.4,0.4,0.4h88c0.2,0,0.4-0.2,0.4-0.4v-2.6
		c0-0.2-0.2-0.4-0.4-0.4H349.7z"/>
	<path class="st4" d="M349.7,186.6c-0.2,0-0.4,0.2-0.4,0.4v2.6c0,0.2,0.2,0.4,0.4,0.4h88c0.2,0,0.4-0.2,0.4-0.4V187
		c0-0.2-0.2-0.4-0.4-0.4H349.7z"/>
	<path class="st4" d="M349.7,195.2c-0.2,0-0.4,0.2-0.4,0.4v2.6c0,0.2,0.2,0.4,0.4,0.4h88c0.2,0,0.4-0.2,0.4-0.4v-2.6
		c0-0.2-0.2-0.4-0.4-0.4H349.7z"/>
	<path class="st4" d="M349.7,203.7c-0.2,0-0.4,0.2-0.4,0.4v2.6c0,0.2,0.2,0.4,0.4,0.4h88c0.2,0,0.4-0.2,0.4-0.4v-2.6
		c0-0.2-0.2-0.4-0.4-0.4H349.7z"/>
	<circle class="st3" cx="459.2" cy="226.9" r="26.8"/>
	<polygon class="st1" points="456.6,238.2 448.6,227.9 453.3,224.3 457.1,229.2 469.9,215.7 474.2,219.7 	"/>
</g>
</svg>
