<?xml version="1.0" encoding="utf-8"?>
<!-- Generator: Adobe Illustrator 24.3.0, SVG Export Plug-In . SVG Version: 6.00 Build 0)  -->
<svg version="1.1" id="a6165653-2719-4fed-8ed9-8fe7d02b0919"
	 xmlns="http://www.w3.org/2000/svg" xmlns:xlink="http://www.w3.org/1999/xlink" x="0px" y="0px" viewBox="0 0 730 260"
	 style="enable-background:new 0 0 730 260;" xml:space="preserve">
<style type="text/css">
	.st0{fill:#E6E6E6;}
	.st1{fill:#FFFFFF;}
	.st2{fill:#FFB8B8;}
	.st3{fill:#2F2E41;}
	.st4{fill:#00B0FF;}
</style>
<g>
	<path class="st0" d="M498.5,237.5c5.2-5.9,29.8-35.2,12.3-40c-13.1-3.6-14.6,16.3-14.1,29.7c-2.1-9-6.2-19.5-13.3-14.9
		c-10.3,6.7,9,21.5,14.1,25.1c0.1,0.7,0.1,1.1,0.1,1.1s0.2-0.2,0.6-0.6c0.3,0.2,0.4,0.3,0.4,0.3S498.6,238,498.5,237.5z"/>
	<path class="st0" d="M233.8,253.8c6-6.8,34.1-40.3,14.1-45.8c-15-4.1-16.7,18.7-16.2,34c-2.4-10.3-7.1-22.4-15.3-17
		c-11.8,7.7,10.3,24.6,16.1,28.8c0.1,0.8,0.2,1.3,0.2,1.3s0.2-0.3,0.7-0.7c0.3,0.2,0.5,0.4,0.5,0.4S233.8,254.3,233.8,253.8z"/>
	<path class="st0" d="M299.7,25c-1.1,0-2,0.9-2,2V236c0,1.1,0.9,2,2,2h168.5c1.1,0,2-0.9,2-2V26.9c0-1.1-0.9-2-2-2H299.7z"/>
	<path class="st1" d="M441.4,116.3H326.5c-1.6,0-2.9-1.3-2.9-2.9s1.3-2.9,2.9-2.9h114.9c1.6,0,2.9,1.3,2.9,2.9
		C444.3,115,443,116.3,441.4,116.3z"/>
	<path class="st1" d="M442.4,61.7h-76.2c-1.1,0-1.9-1.3-1.9-2.9s0.9-2.9,1.9-2.9h76.2c1.1,0,1.9,1.3,1.9,2.9S443.4,61.7,442.4,61.7z
		"/>
	<path class="st1" d="M442.4,78.5h-76.2c-1.1,0-1.9-1.3-1.9-2.9c0-1.6,0.9-2.9,1.9-2.9h76.2c1.1,0,1.9,1.3,1.9,2.9
		C444.3,77.1,443.4,78.5,442.4,78.5z"/>
	<path class="st1" d="M441.4,135.2H326.5c-1.6,0-2.9-1.3-2.9-2.9c0-1.6,1.3-2.9,2.9-2.9h114.9c1.6,0,2.9,1.3,2.9,2.9
		C444.3,133.9,443,135.2,441.4,135.2z"/>
	<path class="st1" d="M441.4,154.2H326.5c-1.6,0-2.9-1.3-2.9-2.9s1.3-2.9,2.9-2.9h114.9c1.6,0,2.9,1.3,2.9,2.9
		S443,154.2,441.4,154.2z"/>
	<path class="st1" d="M441.4,173.2H326.5c-1.6,0-2.9-1.3-2.9-2.9s1.3-2.9,2.9-2.9h114.9c1.6,0,2.9,1.3,2.9,2.9
		S443,173.2,441.4,173.2z"/>
	<path class="st1" d="M441.4,192.1H326.5c-1.6,0-2.9-1.3-2.9-2.9c0-1.6,1.3-2.9,2.9-2.9h114.9c1.6,0,2.9,1.3,2.9,2.9
		C444.3,190.8,443,192.1,441.4,192.1z"/>
	<path class="st1" d="M441.4,211.1H326.5c-1.6,0-2.9-1.3-2.9-2.9c0-1.6,1.3-2.9,2.9-2.9h114.9c1.6,0,2.9,1.3,2.9,2.9
		C444.3,209.8,443,211.1,441.4,211.1z"/>
	<circle class="st1" cx="339" cy="67.3" r="15.4"/>
	<path class="st1" d="M362.8,116.3"/>
	<path class="st2" d="M327.3,121.5l-23,12.2l-0.3-10.2c7.5-1.3,14.7-3.4,21.3-7l2.4-5.9c0.8-2.1,3.2-3.1,5.3-2.2
		c0.6,0.3,1.2,0.7,1.6,1.2l0,0c1.3,1.6,1.2,4-0.4,5.5L327.3,121.5z"/>
	<path class="st3" d="M271,192.2L271,192.2c-0.3-1.2-0.1-2.6,0.6-3.7l5.1-7.8c2.5-3.8,7.4-5.1,11.5-3l0,0c-2.1,3.6-1.8,6.8,0.7,9.6
		c-4,1.9-7.7,4.5-10.9,7.4c-2.1,1.4-4.9,0.9-6.3-1.2C271.4,193.1,271.2,192.6,271,192.2z"/>
	<path class="st3" d="M328.3,182L328.3,182c-1.6,2.6-4.4,4.2-7.4,4.2l-33.6,0.3l-1.5-8.5l14.9-4.4l-12.5-9.6l13.7-16l24.9,23.2
		C329.8,174,330.4,178.5,328.3,182z"/>
	<path class="st3" d="M282.1,239.8h-7.9c-7.1-48.4-14.3-97,7-115.1l25.1,4.1l-3.2,21.3l-14,16L282.1,239.8z"/>
	<path class="st3" d="M288.2,254.7L288.2,254.7c-1.2,0.3-2.6,0.1-3.7-0.6l-7.8-5.1c-3.8-2.5-5.1-7.4-3-11.5l0,0
		c3.6,2.1,6.8,1.8,9.6-0.7c1.9,4,4.5,7.7,7.4,10.9c1.4,2.1,0.9,4.9-1.2,6.3C289.2,254.3,288.7,254.6,288.2,254.7z"/>
	<path class="st3" d="M316.5,91H279c-6.9-9.8-7.7-19.1,0-27.9c0-3.9,5-7,11.2-7h0c4.8,0,9.1,1.9,10.6,4.8L316.5,91z"/>
	<path class="st2" d="M300.8,92.3l-14.6-3.5c2.4-5,2.6-10.5,1.5-16.3l9.9-0.3C297.9,79.5,298.8,86.3,300.8,92.3z"/>
	<path class="st4" d="M304.8,137.5c-10.6,7.2-18.1,0.2-23.8-10.5c0.8-6.6-0.5-14.5-2.9-23c-2.2-7.8,2-16.1,9.6-18.9l0,0l12.5,5.2
		c10.6,8.7,12.7,18.1,8.7,28L304.8,137.5z"/>
	<path class="st2" d="M274.2,99.6l-11.7,6.1l20.7,12.2l2.9,7.1c0.8,1.9-0.1,4.1-2.1,4.9c-0.1,0-0.1,0-0.2,0.1l0,0
		c-2,0.7-4.1-0.4-4.8-2.3c-0.1-0.3-0.2-0.7-0.2-1l-0.3-4.9l-26.3-8.7c-1.8-0.6-3.2-2-3.9-3.8l0,0c-0.9-2.6,0-5.6,2.3-7.2l21.1-14.5
		L274.2,99.6z"/>
	<path class="st4" d="M285.9,100.8c-4.9-2.1-9.3,0.2-14.9,2l-0.9-15.4c5.5-3,10.8-3.7,15.7-1.5L285.9,100.8z"/>
	<path class="st3" d="M315.8,91h-8.3c-5.1-9.5-4.9-26.2-15.9-22.5c-7.1-4.2-3,12.3-4.8,22.5h-7.2c-1.9-9.9-2-19.9,0.3-28
		c0-1.1,0.5-2.1,1.4-2.8c0.4-0.3,0.7-0.6,1.2-0.9c2.5-1.6,4.2-2.5,7.9-2.5c2.1,0,4.1,0.3,6.1,0.8c0.3,0.1,0.5,0.2,0.8,0.2
		c0.3,0.1,0.7,0.2,1,0.4c1.6,0.7,2.9,1.6,3.5,2.8C308.8,69.5,312.3,80,315.8,91z"/>
	<circle class="st2" cx="291.7" cy="70.6" r="9.3"/>
	<path class="st3" d="M301.1,67c-2.8-3.8-10.1,0.7-18.9,4v-9c7.2-3.2,11.4-4.1,16.2-0.8L301.1,67z"/>
	<circle class="st4" cx="464.8" cy="27.5" r="22.5"/>
	<path class="st1" d="M455.4,26.1c-0.8,0-1.5,0.7-1.5,1.5s0.7,1.5,1.5,1.5l0,0h7.9v7.9c0,0.8,0.7,1.5,1.5,1.5s1.5-0.7,1.5-1.5
		c0,0,0,0,0,0V29h7.9c0.8,0,1.5-0.7,1.5-1.5s-0.7-1.5-1.5-1.5h-7.9v-7.9c0-0.8-0.7-1.5-1.5-1.5s-1.5,0.7-1.5,1.5c0,0,0,0,0,0v7.9
		H455.4z"/>
</g>
</svg>
