<?xml version="1.0" encoding="utf-8"?>
<!-- Generator: Adobe Illustrator 24.3.0, SVG Export Plug-In . SVG Version: 6.00 Build 0)  -->
<svg version="1.1" id="fc98b6f9-21a0-4a6d-bd35-cd8a18cd4eab"
	 xmlns="http://www.w3.org/2000/svg" xmlns:xlink="http://www.w3.org/1999/xlink" x="0px" y="0px" viewBox="0 0 730 260"
	 style="enable-background:new 0 0 730 260;" xml:space="preserve">
<style type="text/css">
	.st0{fill:#CCCCCC;}
	.st1{fill:#E6E6E6;}
	.st2{fill:#2F2E41;}
	.st3{fill:#ABEDAE;}
	.st4{fill:#FFB9B9;}
	.st5{fill:#3F3D56;}
	.st6{fill:#FFFFFF;}
</style>
<g>
	<rect x="245.7" y="120.9" class="st0" width="47.6" height="53.2"/>
	<polygon class="st1" points="221.5,254.2 197.3,254.2 194.7,233.4 224.1,233.4 	"/>
	<path class="st1" d="M270.1,239.1l-0.8,11.2c-0.1,2,1.3,3.7,3.3,3.8c0.2,0,0.3,0,0.5,0l5.7-0.3c1-0.1,1.8-0.9,1.7-1.9
		c0-0.1,0-0.2-0.1-0.3l-3.2-12.7L270.1,239.1z"/>
	<path class="st1" d="M318.2,245.7c6.8,1.6,11.6,3.8,14.8,6.9c1.1,1.1,2.6,1.7,4.2,1.8c2,0.1,3.6-0.1,4.8-0.7h0
		c0.6-0.3,1.1-0.9,1.1-1.6c0.1-0.7-0.2-1.4-0.8-1.8l-16-11.4l-6.8,2.7l-1.6,1.6c-0.6,0.6-0.6,1.6,0,2.2
		C317.9,245.6,318,245.7,318.2,245.7L318.2,245.7z"/>
	<path class="st2" d="M297.4,63.3l-45.8-0.4c0.1-6.7,1.7-13.2,5.1-19.1c2.2-3.8,2.2-8,1.6-11.6c-0.8-5.4,1.1-11,5.4-14.5
		c3.3-2.7,7.4-4,11.6-3.8l0.9,0c5.9,0.2,11.2,3.5,14.2,8.6c1.5,2.7,2.1,5.7,1.7,8.8c-0.3,2.9,0.4,5.7,2,8.7
		C296.9,46.3,297.5,54.5,297.4,63.3z"/>
	<path class="st3" d="M328,239.5l-9,2.3l-43.8-95.4l2.7,93h-9c-9.6-43.8-26.9-94.3-19.2-110.2l46.5-2.7L328,239.5z"/>
	<circle class="st4" cx="274.9" cy="35.1" r="12.1"/>
	<path class="st4" d="M285.4,57.4l-19.9-1.2c2-4.5,2.7-8.8,2-12.9h14.9C282.3,46.5,283.8,51.9,285.4,57.4z"/>
	<polygon class="st3" points="297.9,130.1 254.1,133.2 258.6,55.7 266.3,53.5 274.9,55.5 283.5,51.2 288.9,53.1 	"/>
	<path class="st1" d="M261.6,186l-29.9-6.8c8.9-29.5,24.9-96.9,19.7-121l15.6-7L261.6,186z"/>
	<path class="st1" d="M247.1,100.8l-11.3-7l9.7-28.3c1.1-2.9,3.1-5.4,5.8-6.9l3.3-1.9l-2,28.5L247.1,100.8z"/>
	<path class="st1" d="M323.9,179.6c-9.4,5.5-33,8.5-43.4,4.7c-0.8-26.6-2.3-102,2.5-133.9l17.2,7l-1.6,21.1
		C290.5,96.6,314.4,159.5,323.9,179.6z"/>
	<polygon class="st1" points="322.5,97.3 312,93.8 297.9,77.7 300.3,57.4 323.7,90.3 	"/>
	<path class="st4" d="M289.5,112.5c0.4,1.6,1.9,2.6,3.5,2.2l9-2l-1.3-5.7l-9,2C290.1,109.4,289.1,110.9,289.5,112.5L289.5,112.5z"/>
	<path class="st2" d="M285.4,32c-6.7-2.8-13.4-3-19.9-0.4l-2.7-9.8h25L285.4,32z"/>
	<path class="st1" d="M297.5,105.9l5.1,9.4c8.5-2.4,16-9.9,23.1-18.8l-2-6.3l-12.1,3.1L297.5,105.9z"/>
	<path class="st5" d="M293.8,86.5h-1.6c0-22.1-4.6-37.5-9-37.5l-0.4-1.6c4,0,6.5,6.4,7.9,11.8C292.7,66.5,293.8,76.2,293.8,86.5z"/>
	<path class="st5" d="M257.9,81.1h-1.6c0-20.2,4.6-32.8,11.3-32.8l-0.4,1.6C262.6,49.8,257.9,59.5,257.9,81.1z"/>
	<circle class="st5" cx="293" cy="86.9" r="3.9"/>
	<path class="st5" d="M251.6,90.4H250c0-5.6,3.2-10.2,7-10.2v1.6C254.1,81.8,251.6,85.7,251.6,90.4z"/>
	<path class="st5" d="M264.1,90.4h-1.6c0-4.7-2.5-8.6-5.5-8.6v-1.6C261,80.3,264.1,84.8,264.1,90.4z"/>
	<circle class="st5" cx="263.3" cy="90.8" r="1.6"/>
	<circle class="st5" cx="250.8" cy="90.8" r="1.6"/>
	<polygon class="st3" points="231.3,76.5 241,78.2 263.3,109.9 251.5,107.1 	"/>
	<path class="st5" d="M229.6,76.1c-0.5,0-0.8,0.4-0.8,0.8c0,0.2,0,0.3,0.1,0.4l20.8,31.6c0.1,0.2,0.3,0.3,0.5,0.4l9.7,2.3
		c0.4,0.1,0.9-0.2,1-0.6c0.1-0.2,0-0.5-0.1-0.7l-22.9-32.5c-0.1-0.2-0.3-0.3-0.5-0.3l-7.7-1.4C229.7,76.1,229.6,76.1,229.6,76.1z"/>
	<path class="st4" d="M242.6,98.7l0.6,5.8l9.1-0.9c1.6-0.2,2.8-1.6,2.6-3.2c-0.2-1.6-1.6-2.8-3.2-2.6L242.6,98.7z"/>
	<path class="st1" d="M234.6,98c0,4.1,3.4,7.5,7.5,7.5h1.5l1.1-9.1l-9.1-3.3L234.6,98z"/>
	<rect x="371.6" y="5" class="st1" width="178.2" height="93.9"/>
	<path class="st6" d="M376.8,93.7h167.8V10.2H376.8V93.7z"/>
	<rect x="389.8" y="22.3" class="st5" width="59.7" height="59.7"/>
	<circle class="st3" cx="435.2" cy="47.8" r="1.7"/>
	<circle class="st3" cx="428.7" cy="41.8" r="1.7"/>
	<path class="st3" d="M427.8,47.8c-0.6,0-1.3,0.2-1.8,0.5c-0.5-0.7-1-1.4-1.7-2c0-0.1,0-0.2,0-0.3c0-1.9-1.5-3.5-3.5-3.5
		c-0.9,0-1.8,0.3-2.4,1c-0.9-0.1-1.9-0.1-2.8,0c0,0,0-0.1,0-0.1c0-1.9-1.5-3.5-3.5-3.5c-1.9,0-3.5,1.5-3.5,3.5c0,1,0.4,2,1.2,2.6
		c-0.6,0.5-1.1,1.1-1.6,1.7c-1.5-1.2-3.7-1-4.9,0.4c-1.2,1.5-1,3.7,0.4,4.9c0.6,0.5,1.4,0.8,2.2,0.8l0,0c0,0.1,0,0.3,0,0.4
		c0,0.9,0.1,1.7,0.3,2.6c-3.4,1.3-5,5-3.8,8.4c1.3,3.4,5,5,8.4,3.8c1.9-0.7,3.3-2.2,3.9-4.1c2.4,0.5,4.9,0.1,7.1-1
		c0.7,1.8,2.8,2.6,4.5,1.8s2.6-2.8,1.8-4.5c-0.4-0.8-1-1.5-1.8-1.8c0.7-1.4,1.2-3,1.2-4.6l0,0c1.9,0,3.5-1.5,3.5-3.5
		S429.8,47.8,427.8,47.8L427.8,47.8z"/>
	<rect x="409.7" y="21" class="st1" width="17.3" height="2.6"/>
	<rect x="465.9" y="22.3" class="st5" width="59.7" height="59.7"/>
	<circle class="st3" cx="507.1" cy="62" r="0.8"/>
	<circle class="st3" cx="504.2" cy="59.3" r="0.8"/>
	<path class="st3" d="M503.8,62c-0.3,0-0.6,0.1-0.8,0.2c-0.2-0.3-0.5-0.6-0.8-0.9c0,0,0-0.1,0-0.1c0-0.9-0.7-1.6-1.6-1.6
		c-0.4,0-0.8,0.2-1.1,0.4c-0.4-0.1-0.8-0.1-1.3,0c0,0,0,0,0,0c0-0.9-0.7-1.6-1.6-1.6c-0.9,0-1.6,0.7-1.6,1.6c0,0.5,0.2,0.9,0.5,1.2
		c-0.3,0.2-0.5,0.5-0.7,0.7c-0.7-0.6-1.6-0.5-2.2,0.2c-0.6,0.7-0.5,1.6,0.2,2.2c0.3,0.2,0.6,0.4,1,0.4l0,0c0,0.1,0,0.1,0,0.2
		c0,0.4,0,0.8,0.1,1.2c-1.5,0.6-2.3,2.3-1.7,3.8c0.6,1.5,2.3,2.3,3.8,1.7c0.8-0.3,1.5-1,1.8-1.8c1.1,0.2,2.2,0,3.2-0.5
		c0.3,0.8,1.3,1.2,2,0.8c0.8-0.3,1.2-1.3,0.8-2c-0.2-0.4-0.5-0.7-0.8-0.8c0.3-0.6,0.5-1.3,0.6-2.1l0,0c0.9,0,1.6-0.7,1.6-1.6
		C505.3,62.7,504.7,62,503.8,62L503.8,62z"/>
	<circle class="st3" cx="513.2" cy="47.2" r="0.8"/>
	<circle class="st3" cx="515" cy="43.7" r="0.8"/>
	<path class="st3" d="M512.3,44.1c-0.1-0.3-0.2-0.5-0.4-0.7c0.3-0.3,0.5-0.6,0.6-1c0,0,0.1,0,0.1,0c0.8-0.2,1.3-1.1,1.1-1.9
		c-0.1-0.4-0.4-0.7-0.7-0.9c-0.1-0.4-0.2-0.8-0.3-1.2c0,0,0,0,0,0c0.8-0.2,1.3-1.1,1.1-1.9c-0.2-0.8-1.1-1.3-1.9-1.1
		c-0.4,0.1-0.8,0.4-1,0.8c-0.3-0.2-0.6-0.4-0.9-0.5c0.4-0.8,0-1.7-0.8-2.1c-0.8-0.4-1.7,0-2.1,0.8c-0.1,0.3-0.2,0.7-0.1,1.1l0,0
		c-0.1,0-0.1,0-0.2,0c-0.4,0.1-0.7,0.3-1.1,0.5c-1-1.3-2.8-1.6-4.1-0.6c-1.3,1-1.6,2.8-0.6,4.1c0.5,0.7,1.4,1.2,2.3,1.2
		c0.1,1.1,0.6,2.1,1.3,2.9c-0.7,0.5-0.8,1.5-0.2,2.2c0.5,0.7,1.5,0.8,2.2,0.2c0.3-0.3,0.5-0.6,0.6-1c0.7,0.2,1.4,0.1,2.1,0l0,0
		c0.2,0.8,1.1,1.3,1.9,1.1C512.1,45.7,512.5,44.9,512.3,44.1C512.3,44.1,512.3,44.1,512.3,44.1L512.3,44.1z"/>
	<circle class="st3" cx="483.1" cy="36.7" r="0.8"/>
	<circle class="st3" cx="479.1" cy="37" r="0.8"/>
	<path class="st3" d="M480.8,39.1c-0.2,0.2-0.3,0.5-0.4,0.8c-0.4-0.1-0.8-0.1-1.2,0c0,0-0.1-0.1-0.1-0.1c-0.6-0.6-1.6-0.5-2.2,0.1
		c-0.3,0.3-0.4,0.7-0.4,1.1c-0.3,0.3-0.6,0.6-0.9,0.9c0,0,0,0,0,0c-0.6-0.6-1.6-0.5-2.2,0.1c-0.6,0.6-0.5,1.6,0.1,2.2
		c0.3,0.3,0.8,0.4,1.2,0.4c0,0.3,0,0.7,0.1,1c-0.9,0.1-1.4,0.9-1.3,1.8c0.1,0.9,0.9,1.4,1.8,1.3c0.4,0,0.7-0.2,0.9-0.5l0,0
		c0,0,0.1,0.1,0.1,0.1c0.3,0.3,0.6,0.5,1,0.7c-0.6,1.5,0.1,3.2,1.6,3.8c1.5,0.6,3.2-0.1,3.8-1.6c0.3-0.8,0.3-1.8-0.2-2.5
		c0.9-0.7,1.5-1.6,1.8-2.7c0.8,0.3,1.7-0.1,2-1c0.3-0.8-0.1-1.7-1-2c-0.4-0.1-0.8-0.1-1.2,0.1c-0.2-0.7-0.6-1.3-1.2-1.8l0,0
		c0.6-0.6,0.5-1.6-0.1-2.2C482.4,38.4,481.4,38.5,480.8,39.1C480.8,39.1,480.8,39.1,480.8,39.1L480.8,39.1z"/>
	<rect x="485.8" y="21" class="st1" width="17.3" height="2.6"/>
	<path class="st1" d="M191,225.7c6.2,8.4,19.2,9.2,19.2,9.2s2.8-12.7-3.4-21s-19.2-9.2-19.2-9.2S184.8,217.4,191,225.7z"/>
	<path class="st1" d="M222.8,228.9c-4.1,5.5-12.7,6.1-12.7,6.1s-1.9-8.4,2.2-13.9c4.1-5.5,12.7-6.1,12.7-6.1
		S226.9,223.4,222.8,228.9z"/>
	<rect x="180.2" y="254" class="st5" width="224.8" height="1"/>
</g>
</svg>
