<?xml version="1.0" encoding="utf-8"?>
<!-- Generator: Adobe Illustrator 24.3.0, SVG Export Plug-In . SVG Version: 6.00 Build 0)  -->
<svg version="1.1" id="b6192656-deba-422a-9855-e43972e91d46"
	 xmlns="http://www.w3.org/2000/svg" xmlns:xlink="http://www.w3.org/1999/xlink" x="0px" y="0px" viewBox="0 0 730 260"
	 style="enable-background:new 0 0 730 260;" xml:space="preserve">
<style type="text/css">
	.st0{fill:#E6E6E6;}
	.st1{fill:#FFFFFF;}
	.st2{fill:#F2F2F2;}
	.st3{fill:#3F3D56;}
	.st4{fill:#2F2E41;}
	.st5{fill:#F9A826;}
	.st6{fill:#FFB8B8;}
</style>
<g>
	<path class="st0" d="M348.6,241.4c-0.6,0-1.3-0.2-1.8-0.5l-104.7-59.2c-1.8-1-2.4-3.3-1.4-5l82.5-145.8c1-1.8,3.3-2.4,5-1.4
		c0,0,0,0,0,0l104.7,59.2c1.8,1,2.4,3.3,1.4,5l-82.5,145.8c-0.5,0.9-1.3,1.5-2.2,1.7C349.2,241.3,348.9,241.4,348.6,241.4z"/>
	
		<rect x="374.9" y="4.6" transform="matrix(0.4922 -0.8705 0.8705 0.4922 131.2593 361.3517)" class="st1" width="0.9" height="127.1"/>
	
		<rect x="367.3" y="18" transform="matrix(0.4922 -0.8705 0.8705 0.4922 115.7543 361.5619)" class="st1" width="0.9" height="127.1"/>
	
		<rect x="359.8" y="31.4" transform="matrix(0.4922 -0.8705 0.8705 0.4922 100.2493 361.772)" class="st1" width="0.9" height="127.1"/>
	
		<rect x="352.2" y="44.8" transform="matrix(0.4922 -0.8705 0.8705 0.4922 84.7442 361.9822)" class="st1" width="0.9" height="127.1"/>
	
		<rect x="344.6" y="58.2" transform="matrix(0.4922 -0.8705 0.8705 0.4922 69.2392 362.1924)" class="st1" width="0.9" height="127.1"/>
	
		<rect x="337" y="71.6" transform="matrix(0.4922 -0.8705 0.8705 0.4922 53.7342 362.4026)" class="st1" width="0.9" height="127.1"/>
	
		<rect x="329.5" y="85" transform="matrix(0.4922 -0.8705 0.8705 0.4922 38.2292 362.6128)" class="st1" width="0.9" height="127.1"/>
	
		<rect x="321.9" y="98.4" transform="matrix(0.4922 -0.8705 0.8705 0.4922 22.7242 362.823)" class="st1" width="0.9" height="127.1"/>
	
		<rect x="314.3" y="111.8" transform="matrix(0.4922 -0.8705 0.8705 0.4922 7.2192 363.0331)" class="st1" width="0.9" height="127.1"/>
	
		<rect x="306.8" y="125.2" transform="matrix(0.4922 -0.8705 0.8705 0.4922 -8.2858 363.2433)" class="st1" width="0.9" height="127.1"/>
	
		<rect x="299.2" y="138.6" transform="matrix(0.4922 -0.8705 0.8705 0.4922 -23.7909 363.4535)" class="st1" width="0.9" height="127.1"/>
	<path class="st2" d="M338.8,219.2c-0.6,0-1.3-0.2-1.8-0.5l-104.7-59.2c-1.8-1-2.4-3.3-1.4-5L313.4,8.6c1-1.8,3.3-2.4,5-1.4
		c0,0,0,0,0,0l104.7,59.2c1.8,1,2.4,3.3,1.4,5l-82.5,145.8c-0.5,0.9-1.3,1.5-2.2,1.7C339.5,219.1,339.2,219.2,338.8,219.2z"/>
	
		<rect x="365.2" y="-17.6" transform="matrix(0.4922 -0.8705 0.8705 0.4922 145.6235 341.6089)" class="st1" width="0.9" height="127.1"/>
	
		<rect x="357.6" y="-4.2" transform="matrix(0.4922 -0.8705 0.8705 0.4922 130.1185 341.8191)" class="st1" width="0.9" height="127.1"/>
	
		<rect x="350" y="9.2" transform="matrix(0.4922 -0.8705 0.8705 0.4922 114.6135 342.0293)" class="st1" width="0.9" height="127.1"/>
	
		<rect x="342.4" y="22.6" transform="matrix(0.4922 -0.8705 0.8705 0.4922 99.1084 342.2395)" class="st1" width="0.9" height="127.1"/>
	
		<rect x="334.9" y="36" transform="matrix(0.4922 -0.8705 0.8705 0.4922 83.6034 342.4497)" class="st1" width="0.9" height="127.1"/>
	
		<rect x="327.3" y="49.4" transform="matrix(0.4922 -0.8705 0.8705 0.4922 68.0984 342.6599)" class="st1" width="0.9" height="127.1"/>
	
		<rect x="319.7" y="62.8" transform="matrix(0.4922 -0.8705 0.8705 0.4922 52.5934 342.87)" class="st1" width="0.9" height="127.1"/>
	
		<rect x="312.2" y="76.2" transform="matrix(0.4922 -0.8705 0.8705 0.4922 37.0884 343.0802)" class="st1" width="0.9" height="127.1"/>
	
		<rect x="304.6" y="89.6" transform="matrix(0.4922 -0.8705 0.8705 0.4922 21.5833 343.2904)" class="st1" width="0.9" height="127.1"/>
	<rect x="297" y="103" transform="matrix(0.4922 -0.8705 0.8705 0.4922 6.0784 343.5006)" class="st1" width="0.9" height="127.1"/>
	
		<rect x="289.4" y="116.4" transform="matrix(0.4922 -0.8705 0.8705 0.4922 -9.4267 343.7108)" class="st1" width="0.9" height="127.1"/>
	<path class="st3" d="M328.4,5.9H161.1v232.6h167.3c1.3,0,2.3-1,2.3-2.3V8.1C330.7,6.9,329.7,5.9,328.4,5.9z M170.5,232.1
		c-2.3,0-4.2-1.9-4.2-4.2c0-2.3,1.9-4.2,4.2-4.2s4.2,1.9,4.2,4.2C174.7,230.2,172.8,232.1,170.5,232.1
		C170.5,232.1,170.5,232.1,170.5,232.1z M170.5,211c-2.3,0-4.2-1.9-4.2-4.2c0-2.3,1.9-4.2,4.2-4.2c2.3,0,4.2,1.9,4.2,4.2
		C174.7,209.1,172.8,211,170.5,211C170.5,211,170.5,211,170.5,211L170.5,211z M170.5,189.8c-2.3,0-4.2-1.9-4.2-4.2
		c0-2.3,1.9-4.2,4.2-4.2c2.3,0,4.2,1.9,4.2,4.2C174.7,187.9,172.8,189.8,170.5,189.8C170.5,189.8,170.5,189.8,170.5,189.8
		L170.5,189.8z M170.5,168.7c-2.3,0-4.2-1.9-4.2-4.2c0-2.3,1.9-4.2,4.2-4.2c2.3,0,4.2,1.9,4.2,4.2
		C174.7,166.8,172.8,168.7,170.5,168.7C170.5,168.7,170.5,168.7,170.5,168.7L170.5,168.7z M170.5,147.5c-2.3,0-4.2-1.9-4.2-4.2
		c0-2.3,1.9-4.2,4.2-4.2c2.3,0,4.2,1.9,4.2,4.2l0,0C174.7,145.6,172.8,147.5,170.5,147.5C170.5,147.5,170.5,147.5,170.5,147.5
		L170.5,147.5z M170.5,126.4c-2.3,0-4.2-1.9-4.2-4.2c0-2.3,1.9-4.2,4.2-4.2c2.3,0,4.2,1.9,4.2,4.2l0,0
		C174.7,124.5,172.8,126.4,170.5,126.4C170.5,126.4,170.5,126.4,170.5,126.4L170.5,126.4z M170.5,105.2c-2.3,0-4.2-1.9-4.2-4.2
		c0-2.3,1.9-4.2,4.2-4.2c2.3,0,4.2,1.9,4.2,4.2l0,0C174.7,103.3,172.8,105.2,170.5,105.2C170.5,105.2,170.5,105.2,170.5,105.2
		L170.5,105.2z M170.5,84.1c-2.3,0-4.2-1.9-4.2-4.2c0-2.3,1.9-4.2,4.2-4.2c2.3,0,4.2,1.9,4.2,4.2l0,0
		C174.7,82.2,172.8,84.1,170.5,84.1C170.5,84.1,170.5,84.1,170.5,84.1L170.5,84.1z M170.5,62.9c-2.3,0-4.2-1.9-4.2-4.2
		c0-2.3,1.9-4.2,4.2-4.2c2.3,0,4.2,1.9,4.2,4.2l0,0C174.7,61,172.8,62.9,170.5,62.9C170.5,62.9,170.5,62.9,170.5,62.9L170.5,62.9z
		 M170.5,41.8c-2.3,0-4.2-1.9-4.2-4.2c0-2.3,1.9-4.2,4.2-4.2c2.3,0,4.2,1.9,4.2,4.2C174.7,39.9,172.8,41.8,170.5,41.8
		C170.5,41.8,170.5,41.8,170.5,41.8L170.5,41.8z M170.5,20.6c-2.3,0-4.2-1.9-4.2-4.2s1.9-4.2,4.2-4.2s4.2,1.9,4.2,4.2v0
		C174.7,18.7,172.8,20.6,170.5,20.6C170.5,20.6,170.5,20.6,170.5,20.6L170.5,20.6z"/>
	<path class="st4" d="M161.1,18.7c-1.1,0-11-0.1-11-1.9s9.8-1.9,11-1.9v0.8c-5.8,0-9.5,0.6-10.1,1.1c0.6,0.5,4.4,1.1,10.1,1.1
		c5.8,0,9.5-0.6,10.1-1.1c-0.3-0.2-1.5-0.6-4.7-0.9l0.1-0.8c5.5,0.5,5.5,1.3,5.5,1.7C172.1,18.7,162.2,18.7,161.1,18.7z"/>
	<path class="st4" d="M161.1,39.5c-1.1,0-11-0.1-11-1.9c0-1.8,9.8-1.9,11-1.9v0.8c-5.8,0-9.5,0.6-10.1,1.1c0.6,0.5,4.4,1.1,10.1,1.1
		c5.8,0,9.5-0.6,10.1-1.1c-0.3-0.2-1.5-0.6-4.7-0.9l0.1-0.8c5.5,0.5,5.5,1.3,5.5,1.7C172.1,39.4,162.2,39.5,161.1,39.5z"/>
	<path class="st4" d="M161.1,60.6c-1.1,0-11-0.1-11-1.9c0-1.8,9.8-1.9,11-1.9v0.8c-5.8,0-9.5,0.6-10.1,1.1c0.6,0.5,4.4,1.1,10.1,1.1
		c5.8,0,9.5-0.6,10.1-1.1c-0.3-0.2-1.5-0.6-4.7-0.9l0.1-0.8c5.5,0.5,5.5,1.3,5.5,1.7C172.1,60.6,162.2,60.6,161.1,60.6z"/>
	<path class="st4" d="M161.1,81.8c-1.1,0-11-0.1-11-1.9s9.8-1.9,11-1.9v0.8c-5.8,0-9.5,0.6-10.1,1.1c0.6,0.5,4.4,1.1,10.1,1.1
		c5.8,0,9.5-0.6,10.1-1.1c-0.3-0.2-1.5-0.6-4.7-0.9l0.1-0.8c5.5,0.5,5.5,1.3,5.5,1.7C172.1,81.7,162.2,81.8,161.1,81.8z"/>
	<path class="st4" d="M161.1,102.9c-1.1,0-11-0.1-11-1.9c0-1.8,9.8-1.9,11-1.9v0.8c-5.8,0-9.5,0.6-10.1,1.1
		c0.6,0.5,4.4,1.1,10.1,1.1c5.8,0,9.5-0.6,10.1-1.1c-0.3-0.2-1.5-0.6-4.7-0.9l0.1-0.8c5.5,0.5,5.5,1.3,5.5,1.7
		C172.1,102.9,162.2,102.9,161.1,102.9z"/>
	<path class="st4" d="M161.1,124.1c-1.1,0-11-0.1-11-1.9c0-1.8,9.8-1.9,11-1.9v0.8c-5.8,0-9.5,0.6-10.1,1.1
		c0.6,0.5,4.4,1.1,10.1,1.1c5.8,0,9.5-0.6,10.1-1.1c-0.3-0.2-1.5-0.6-4.7-0.9l0.1-0.8c5.5,0.5,5.5,1.3,5.5,1.7
		C172.1,124,162.2,124.1,161.1,124.1z"/>
	<path class="st4" d="M161.1,145.2c-1.1,0-11-0.1-11-1.9c0-1.8,9.8-1.9,11-1.9v0.8c-5.8,0-9.5,0.6-10.1,1.1
		c0.6,0.5,4.4,1.1,10.1,1.1c5.8,0,9.5-0.6,10.1-1.1c-0.3-0.2-1.5-0.6-4.7-0.9l0.1-0.8c5.5,0.5,5.5,1.3,5.5,1.7
		C172.1,145.2,162.2,145.2,161.1,145.2z"/>
	<path class="st4" d="M161.1,166.4c-1.1,0-11-0.1-11-1.9s9.8-1.9,11-1.9v0.8c-5.8,0-9.5,0.6-10.1,1.1c0.6,0.5,4.4,1.1,10.1,1.1
		c5.8,0,9.5-0.6,10.1-1.1c-0.3-0.2-1.5-0.6-4.7-0.9l0.1-0.8c5.5,0.5,5.5,1.3,5.5,1.7C172.1,166.3,162.2,166.4,161.1,166.4z"/>
	<path class="st4" d="M161.1,187.5c-1.1,0-11-0.1-11-1.9c0-1.8,9.8-1.9,11-1.9v0.8c-5.8,0-9.5,0.6-10.1,1.1
		c0.6,0.5,4.4,1.1,10.1,1.1c5.8,0,9.5-0.6,10.1-1.1c-0.3-0.2-1.5-0.6-4.7-0.9l0.1-0.8c5.5,0.5,5.5,1.3,5.5,1.7
		C172.1,187.5,162.2,187.5,161.1,187.5z"/>
	<path class="st4" d="M161.1,208.7c-1.1,0-11-0.1-11-1.9c0-1.8,9.8-1.9,11-1.9v0.8c-5.8,0-9.5,0.6-10.1,1.1
		c0.6,0.5,4.4,1.1,10.1,1.1c5.8,0,9.5-0.6,10.1-1.1c-0.3-0.2-1.5-0.6-4.7-0.9l0.1-0.8c5.5,0.5,5.5,1.3,5.5,1.7
		C172.1,208.6,162.2,208.7,161.1,208.7z"/>
	<path class="st4" d="M161.1,229.8c-1.1,0-11-0.1-11-1.9s9.8-1.9,11-1.9v0.8c-5.8,0-9.5,0.6-10.1,1.1c0.6,0.5,4.4,1.1,10.1,1.1
		c5.8,0,9.5-0.6,10.1-1.1c-0.3-0.2-1.5-0.6-4.7-0.9l0.1-0.8c5.5,0.5,5.5,1.3,5.5,1.7C172.1,229.8,162.2,229.8,161.1,229.8z"/>
	<path class="st1" d="M294.2,94.8h-83.1c-1.4,0-2.5-1.1-2.5-2.5V59.9c0-1.4,1.1-2.5,2.5-2.5h83.1c1.4,0,2.5,1.1,2.5,2.5v32.5
		C296.7,93.7,295.6,94.8,294.2,94.8z"/>
	<path class="st5" d="M263.3,68.6h-21.1c-1,0-1.9-0.8-1.9-1.9s0.8-1.9,1.9-1.9h21.1c1,0,1.9,0.8,1.9,1.9S264.3,68.6,263.3,68.6
		L263.3,68.6z"/>
	<path class="st5" d="M275,78h-44.6c-1,0-1.9-0.8-1.9-1.9s0.8-1.9,1.9-1.9H275c1,0,1.9,0.8,1.9,1.9S276,78,275,78z"/>
	<path class="st5" d="M275,87.5h-44.6c-1,0-1.9-0.8-1.9-1.9s0.8-1.9,1.9-1.9H275c1,0,1.9,0.8,1.9,1.9S276,87.5,275,87.5z"/>
	<path class="st4" d="M490.8,84.3c3.5,0,6.3-2.8,6.3-6.3c0-1.4-0.5-2.8-1.4-3.9c-3.1-3.9-9.8-3.3-12.5-7.4
		c-2.3-3.5-0.2-8.3,2.9-11.2c6-5.6,15.5-7,22.8-3.3c7.3,3.7,11.9,12.2,10.9,20.3c-0.4,3.1-1.2,6.9,1.2,8.8c2.1,1.8,5.3,0.8,8,0.1
		c8-2,16.6-0.4,23.3,4.3c5.7,4.1,9.8,10.7,9.8,17.7c0,7-4.8,14.1-11.6,15.6c-6.7,1.5-13.6-2.2-18.3-7.2c-4.7-5-8-11.2-12.3-16.5
		s-10.3-10-17.2-10.2c-4-0.1-8.3,1.3-11.7-0.8"/>
	<circle class="st6" cx="493.7" cy="73.8" r="13.3"/>
	<path class="st6" d="M465.5,161.9c-0.9-2.9,0.7-5.9,3.6-6.8c0.3-0.1,0.6-0.2,0.9-0.2l4.1-18.9l7,7.2l-4.9,16.9
		c0.2,3-2.1,5.6-5.2,5.8C468.5,166,466.2,164.4,465.5,161.9z"/>
	<polygon class="st6" points="533.7,244 527.2,245.3 507.6,180.7 521.5,178.9 	"/>
	<path class="st4" d="M522.2,244.3l12.6-2.4l0,0l1.5,7.9l0,0l-20.5,3.8l0,0l0,0C515,249.3,517.8,245.1,522.2,244.3L522.2,244.3z"/>
	<polygon class="st6" points="491,247.5 484.4,247.5 483.4,187.7 497.5,187.7 	"/>
	<path class="st4" d="M479.6,245.6h12.8l0,0v8.1l0,0h-20.8l0,0l0,0C471.6,249.2,475.2,245.6,479.6,245.6L479.6,245.6z"/>
	<path class="st5" d="M480.3,195.9l0.6-29.2c0-0.4-4.8-44.7-6.6-56c-1.8-11.5,7.6-17.4,7.7-17.4c0.4-0.2,0.8-0.3,1.2-0.5l0,0
		c9.1-3.4,19.3-1.3,26.3,5.3c7.2,6.7,10.1,16.9,7.3,26.3l-3.3,11.5c16.9,30.6,20.4,43.8,20.5,43.9l0,0l0,0
		c-0.6,12.1-51.1,15.8-53.3,15.9L480.3,195.9z"/>
	<polygon class="st5" points="476.4,105.2 465,150.4 485.4,152.8 	"/>
	<path class="st6" d="M504.1,142.6c0.5-3,3.4-4.9,6.3-4.4c0.3,0.1,0.6,0.1,0.9,0.3l12.3-14.9l3,9.6l-12.1,12.7
		c-1.2,2.8-4.5,4-7.2,2.8C504.9,147.5,503.6,145.1,504.1,142.6z"/>
	<path class="st5" d="M520.1,142.6l-10.7-6.9l10.2-10.8l-27.6-8.4l7.1-20.7l8.7,1.2l22.2,16.4c5.9,4.4,7.1,12.6,2.9,18.6l0,0.1
		L520.1,142.6z"/>
	<path class="st4" d="M481.8,66.2c5.7,3.5,12.2,5.6,18.8,6.2l-2-2.4c1.4,0.5,3,0.8,4.5,0.9c1.5,0,3.2-0.6,4-1.9
		c0.8-1.3,0.9-2.9,0.3-4.2c-0.6-1.4-1.5-2.5-2.7-3.4c-4.3-3.4-10-4.4-15.2-2.7c-1.8,0.5-3.3,1.5-4.5,2.9c-1.1,1.4-3.6,2.7-3.1,4.4
		L481.8,66.2z"/>
	<path class="st3" d="M579.2,254.1H414.6c-0.4,0-0.6-0.3-0.6-0.6s0.3-0.6,0.6-0.6c0,0,0,0,0,0h164.6c0.4,0,0.6,0.3,0.6,0.6
		C579.8,253.8,579.6,254.1,579.2,254.1z"/>
</g>
</svg>
