<?xml version="1.0" encoding="utf-8"?>
<!-- Generator: Adobe Illustrator 24.3.0, SVG Export Plug-In . SVG Version: 6.00 Build 0)  -->
<svg version="1.1" id="ef4d1e10-640d-406d-ab29-0014e28ba91d"
	 xmlns="http://www.w3.org/2000/svg" xmlns:xlink="http://www.w3.org/1999/xlink" x="0px" y="0px" viewBox="0 0 730 260"
	 style="enable-background:new 0 0 730 260;" xml:space="preserve">
<style type="text/css">
	.st0{opacity:0.5;}
	.st1{fill:url(#SVGID_1_);}
	.st2{fill:#F7F7F7;}
	.st3{fill:#00B0FF;}
	.st4{fill:#E0E0E0;}
	.st5{fill:url(#SVGID_2_);}
	.st6{fill:url(#SVGID_3_);}
	.st7{fill:#EEEEEE;}
	.st8{fill:#DFDFDF;}
	.st9{fill:url(#SVGID_4_);}
	.st10{fill:#333333;}
	.st11{fill:#FDA57D;}
	.st12{opacity:4.000000e-02;enable-background:new    ;}
	.st13{opacity:5.000000e-02;enable-background:new    ;}
</style>
<g>
	<g class="st0">
		
			<linearGradient id="SVGID_1_" gradientUnits="userSpaceOnUse" x1="248.6817" y1="117.6396" x2="248.6817" y2="255.4998" gradientTransform="matrix(1 0 0 -1 0 260.4998)">
			<stop  offset="0" style="stop-color:#808080;stop-opacity:0.25"/>
			<stop  offset="0.54" style="stop-color:#808080;stop-opacity:0.12"/>
			<stop  offset="1" style="stop-color:#808080;stop-opacity:0.1"/>
		</linearGradient>
		<rect x="149.1" y="5" class="st1" width="199.1" height="137.9"/>
	</g>
	<rect x="151.2" y="7.1" class="st2" width="195.5" height="134.3"/>
	<g class="st0">
		<circle class="st3" cx="183" cy="52.6" r="3.6"/>
		<circle class="st3" cx="183" cy="74.2" r="3.6"/>
		<circle class="st3" cx="183" cy="95.8" r="3.6"/>
	</g>
	<rect x="209.5" y="50.5" class="st4" width="109.1" height="4.1"/>
	<rect x="209.5" y="72.1" class="st4" width="109.1" height="4.1"/>
	<rect x="209.5" y="93.7" class="st4" width="109.1" height="4.1"/>
	<g class="st0">
		
			<linearGradient id="SVGID_2_" gradientUnits="userSpaceOnUse" x1="318.1262" y1="61.5721" x2="318.1262" y2="199.4323" gradientTransform="matrix(1 0 0 -1 0 260.4998)">
			<stop  offset="0" style="stop-color:#808080;stop-opacity:0.25"/>
			<stop  offset="0.54" style="stop-color:#808080;stop-opacity:0.12"/>
			<stop  offset="1" style="stop-color:#808080;stop-opacity:0.1"/>
		</linearGradient>
		<rect x="218.6" y="61.1" class="st5" width="199.1" height="137.9"/>
	</g>
	<rect x="220.6" y="63.1" class="st2" width="195.5" height="134.3"/>
	<g class="st0">
		<circle class="st3" cx="252.4" cy="108.6" r="3.6"/>
		<circle class="st3" cx="252.4" cy="130.3" r="3.6"/>
		<circle class="st3" cx="252.4" cy="151.9" r="3.6"/>
	</g>
	<rect x="278.9" y="106.6" class="st4" width="109.1" height="4.1"/>
	<rect x="278.9" y="128.2" class="st4" width="109.1" height="4.1"/>
	<rect x="278.9" y="149.8" class="st4" width="109.1" height="4.1"/>
	<g class="st0">
		
			<linearGradient id="SVGID_3_" gradientUnits="userSpaceOnUse" x1="387.5706" y1="5.4998" x2="387.5706" y2="143.3601" gradientTransform="matrix(1 0 0 -1 0 260.4998)">
			<stop  offset="0" style="stop-color:#808080;stop-opacity:0.25"/>
			<stop  offset="0.54" style="stop-color:#808080;stop-opacity:0.12"/>
			<stop  offset="1" style="stop-color:#808080;stop-opacity:0.1"/>
		</linearGradient>
		<rect x="288" y="117.1" class="st6" width="199.1" height="137.9"/>
	</g>
	<rect x="290.1" y="119.2" class="st7" width="195.5" height="134.3"/>
	<circle class="st3" cx="321.9" cy="164.7" r="3.6"/>
	<circle class="st3" cx="321.9" cy="186.3" r="3.6"/>
	<circle class="st3" cx="321.9" cy="207.9" r="3.6"/>
	<rect x="348.3" y="162.7" class="st8" width="109.1" height="4.1"/>
	<rect x="348.3" y="184.3" class="st8" width="109.1" height="4.1"/>
	<rect x="348.3" y="205.9" class="st8" width="109.1" height="4.1"/>
	<g class="st0">
		
			<linearGradient id="SVGID_4_" gradientUnits="userSpaceOnUse" x1="657.5939" y1="-169.0397" x2="657.5939" y2="23.9363" gradientTransform="matrix(1 0 0 -1 -144.63 74.1998)">
			<stop  offset="0" style="stop-color:#808080;stop-opacity:0.25"/>
			<stop  offset="0.54" style="stop-color:#808080;stop-opacity:0.12"/>
			<stop  offset="1" style="stop-color:#808080;stop-opacity:0.1"/>
		</linearGradient>
		<path class="st9" d="M576.8,115.3c-1.4-0.1-2.9-1.1-3-2.5c-0.2-1.7,1.4-2.9,2.4-4.3c1.8-2.5,1.6-6,0-8.5c-1.6-2.5-4.4-4.3-7.2-5.1
			c-2.4-0.7-5.2-1.1-6.6-3.2c-2.2-3.4,1.2-7.7,1.5-11.7c0.3-3.9-2.9-7.7-6.8-8.1c-2.2-0.2-4.9,0.5-6.5-1.1c-0.4-0.5-0.8-1-1-1.6
			c-1-2.7-0.6-5.7-0.4-8.6c0.1-2.9-0.3-6.2-2.5-8c-1.3-1.1-3-1.5-4.7-1.8c-5-0.8-10.2-0.5-15.2,0.2c-7,1-14.3,3.2-19,8.6
			c-4.6,5.4-5.2,14.6,0.4,19c-0.5-0.4-0.3-1.2,0.4-2.2c0,0.1,0,0.2,0,0.3c0,6,3.7,11.3,9.3,13.4v1c-1,0.2-2,0.7-2.9,1.2
			c-9.5,2.4-28.6,14.1-28.6,14.1l-28,4.7c0,0-13.7,2.1-13.2,4.2c0.5,2.1,13.2,0.5,13.2,0.5h28.4c2.6,0,5.1-0.7,7.4-1.9l15.5-8.5
			c-0.1,1.2-0.1,2.5-0.1,3.8c-2.5,1.8-4.8,5.6,0.2,13.5l0-0.2c0,0.1,0,0.1,0,0.2l-5.6,26c-1.7,1.3-2.9,2.4-2.5,3.1
			c0.2,0.4,0.9,0.4,1.7,0.3l-7.8,36l21.9,26.4l3.7,20.9l-3.4,3.3l-12.8,2.4c-0.6,0.1-1,0.7-0.9,1.3c0.1,0.6,0.6,1,1.1,0.9h27.9V238
			h0.3l-0.5-6.3l8.8-5.8l-2.9-4.4l-0.4,0.3l-7.1-9.9l-1.2-15.5l12.9-46.7l0,0v-0.1l0,0l-3.2-13l5.6-2.8c3.6-1.8,5.3-6.1,4-9.9
			c-0.8-2.5-1.9-5.4-3.1-8.3c1.8,1.8,4,3.3,6.3,4.5c9.2,4.3,20.2,0.2,28.4-5.7C579.6,114.8,578.2,115.4,576.8,115.3z M537.2,126.3
			l-2-8.1l2.7,6.8C537.5,125.6,537.3,126.1,537.2,126.3L537.2,126.3z M526.2,91v-0.6c1.8-0.4,3.5-1.3,5.1-2.4
			c-0.1,2.1,0.1,4.3,0.6,6.3C530.6,92.7,528.8,91.6,526.2,91L526.2,91z M511.4,184.2l11.3-32.7l-6.9,38.8L511.4,184.2z"/>
	</g>
	<path class="st10" d="M537.9,219.4l-9.9,6.5l-11.4,10.9c-0.4,0.4-0.5,1-0.2,1.4l0,0c0.3,0.5,1,0.7,1.6,0.3c0,0,0,0,0,0l22.8-14.9
		L537.9,219.4z"/>
	<path class="st3" d="M517.5,102.2l-22.9,12.6c-2.2,1.2-4.7,1.8-7.2,1.8h-27.6V112l27.3-4.6c0,0,30.9-19,32.9-12.9
		S517.5,102.2,517.5,102.2z"/>
	<path class="st3" d="M542,149.5h-38l5.7-26.2c0-14.3-2.8-31.2,11.4-31.2l0,0c14.3,0,12.7,9.8,12.7,24L542,149.5z"/>
	<path class="st11" d="M517.8,82.1h8.1l0,0v11.2c0,2.1-1.7,3.7-3.7,3.7h-0.6c-2.1,0-3.7-1.7-3.7-3.7V82.1L517.8,82.1z"/>
	<polygon class="st4" points="504,149.5 496,186.9 529,226.7 537.7,219.9 511.4,183.1 523,149.5 	"/>
	<polygon class="st12" points="504,149.5 496,186.9 529,226.7 537.7,219.9 511.4,183.1 523,149.5 	"/>
	<polygon class="st4" points="522.7,149.5 514.4,196.4 521.2,235.4 532.6,235.4 529.5,195 542,149.5 	"/>
	<path class="st3" d="M514.4,108.9"/>
	<path class="st13" d="M536.5,126.9l-25.2,18l2.1,3.6l29.5-14.9c3.5-1.8,5.2-5.9,3.9-9.6C543.2,113.8,536.5,126.9,536.5,126.9z"/>
	<path class="st13" d="M529.7,106.2l8.3,21.3l-25.7,14.9l2.6,6.7l29.5-14.9c3.5-1.8,5.2-5.9,3.9-9.6c-3.5-10.2-10.8-28.2-16.9-23.9
		C529.5,101.8,528.9,104.1,529.7,106.2z"/>
	<path class="st3" d="M529.2,105.1l8.3,21.3l-25.2,17l1.5,4.6l30-14.9c3.5-1.8,5.2-5.9,3.9-9.6c-3.5-10.2-10.8-28.2-16.9-23.9
		C529,100.8,528.4,103.1,529.2,105.1z"/>
	<path class="st10" d="M532.4,235.5h-11.9l-15.5,2.9c-0.5,0.1-0.9,0.6-0.9,1.1l0,0c0,0.6,0.5,1.1,1.1,1.1h27.2L532.4,235.5z"/>
	<path class="st13" d="M530.3,106.3c0,0,6.2,8.2,5.1,14.4"/>
	<path class="st13" d="M517.8,92.6c2.6,0.9,5.4,1.1,8.1,0.4v-9.8h-8.1V92.6z"/>
	<circle class="st11" cx="522.5" cy="78.5" r="13.8"/>
	<path class="st11" d="M459.8,112c0,0-13.4,2.1-12.9,4.1c0.5,2.1,12.9,0.5,12.9,0.5V112z"/>
	<path class="st11" d="M512.7,143.5c0,0-12,6.3-10.8,8.1c1.2,1.8,12.3-3.7,12.3-3.7L512.7,143.5z"/>
	<path class="st3" d="M512.3,108.9c0,0-10.4,2.3-2.6,14.4"/>
	<path class="st13" d="M524.7,109.9c0,0-10.4,2.3-2.6,14.4"/>
	<path class="st3" d="M525.2,109.9c0,0-10.4,2.3-2.6,14.4"/>
	<path class="st10" d="M532.8,83c-2.7,4.4-2.6,10.2-0.8,15.1c1.8,4.9,5.1,9.1,8.4,13.1c3.1,3.8,6.4,7.6,10.9,9.6
		c8.9,4.2,19.6,0.2,27.7-5.6c-1.3,0.5-2.6,1.1-4,1c-1.4-0.1-2.8-1-2.9-2.4c-0.2-1.6,1.4-2.8,2.4-4.2c1.7-2.4,1.5-5.8,0-8.3
		c-1.5-2.5-4.2-4.1-7-5c-2.3-0.7-5.1-1.1-6.4-3.1c-2.2-3.3,1.2-7.5,1.5-11.4c0.3-3.8-2.8-7.5-6.6-7.8c-2.2-0.2-4.7,0.5-6.3-1.1
		c-0.4-0.4-0.7-1-0.9-1.6c-1-2.6-0.5-5.6-0.4-8.4c0.1-2.8-0.3-6-2.4-7.8c-1.3-1-2.9-1.5-4.5-1.7c-4.9-0.8-9.9-0.5-14.8,0.2
		c-6.8,1-13.9,3.1-18.4,8.3c-4.5,5.2-5.1,14.2,0.3,18.5c-1.9-1.5,7.5-10.3,11.9-7.6C525.2,75.9,525.3,83.2,532.8,83z"/>
</g>
</svg>
