<?xml version="1.0" encoding="utf-8"?>
<!-- Generator: Adobe Illustrator 24.3.0, SVG Export Plug-In . SVG Version: 6.00 Build 0)  -->
<svg version="1.1" id="Layer_1" xmlns="http://www.w3.org/2000/svg" xmlns:xlink="http://www.w3.org/1999/xlink" x="0px" y="0px"
	 viewBox="0 0 730 230" style="enable-background:new 0 0 730 230;" xml:space="preserve">
<style type="text/css">
	.st0{fill:#FBAC4B;}
	.st1{fill:#2F2E41;}
	.st2{fill:#E6E6E6;}
	.st3{fill:#FFFFFF;}
	.st4{fill:#ECEFF0;stroke:#2F2E41;}
	.st5{fill:#3F3D56;}
</style>
<g id="undraw_Resume_folder_re_e0bi" transform="translate(0)">
	<path id="Path_77" class="st0" d="M276.5,150c-0.2,0-0.5,0-0.7-0.1c-0.6-0.2-1.1-0.6-1.4-1.1l-2.3-4.3c-0.6-1.1-0.2-2.5,0.9-3
		c0,0,0,0,0.1,0l36.5-18.3c1.1-0.6,2.5-0.1,3.1,1l2.3,4.3c0.6,1.1,0.2,2.5-0.9,3c0,0,0,0-0.1,0l-36.5,18.3
		C277.3,149.9,276.9,150,276.5,150z"/>
	<path id="Path_78" class="st1" d="M289.8,133.4c0.1,0.1,0.2,0.3,0.2,0.4l3.9,8.2c0.3,0.6,0.3,1.2,0,1.7c-0.2,0.6-0.7,1-1.2,1.3
		l-13,4.4c-2.8,1-5.8-0.3-7.2-2.9l0.2-0.1l-0.2,0.1c-1.4-2.7-0.3-6,2.4-7.5l12-6.4C287.9,132.2,289.1,132.5,289.8,133.4L289.8,133.4
		z"/>
	<path id="Path_79" class="st2" d="M442.6,111.9h-62.5c-1.4,0-2.8-0.5-3.9-1.4l-25.8-22.1c-0.9-0.8-2-1.2-3.2-1.2H325V12.6
		c0-3,2.5-5.4,5.5-5.4h106.6c3,0,5.5,2.4,5.5,5.4V111.9z"/>
	<ellipse id="Ellipse_10" class="st3" cx="350.6" cy="30.5" rx="11.7" ry="11.4"/>
	<path id="Path_80" class="st3" d="M396,24.4h-21.7c-0.8,0-1.5,0.6-1.5,1.4c0,0.8,0.6,1.5,1.4,1.5c0,0,0,0,0.1,0H396
		c0.8,0,1.5-0.6,1.5-1.4C397.6,25.1,396.9,24.4,396,24.4C396.1,24.4,396.1,24.4,396,24.4z"/>
	<path id="Path_81" class="st3" d="M427.6,33.7H374c-0.8,0.1-1.3,0.9-1.2,1.7c0.1,0.6,0.6,1.1,1.2,1.2h53.5c0.8-0.1,1.3-0.9,1.2-1.7
		C428.6,34.3,428.2,33.8,427.6,33.7L427.6,33.7z"/>
	<path id="Path_82" class="st3" d="M423.4,53.3h-79c-0.8,0.2-1.3,1-1.1,1.8c0.1,0.6,0.6,1,1.1,1.1h79c0.8-0.2,1.3-1,1.1-1.8
		C424.3,53.8,423.9,53.4,423.4,53.3z"/>
	<path id="Path_83" class="st3" d="M423.4,62.4h-79c-0.8,0.2-1.3,1-1.1,1.8c0.1,0.6,0.6,1,1.1,1.1h79c0.8-0.2,1.3-1,1.1-1.8
		C424.3,62.9,423.9,62.5,423.4,62.4z"/>
	<path id="Path_84" class="st3" d="M423.4,71.5h-79c-0.8,0.2-1.3,1-1.1,1.8c0.1,0.6,0.6,1,1.1,1.1h79c0.8-0.2,1.3-1,1.1-1.8
		C424.3,72,423.9,71.6,423.4,71.5z"/>
	<path id="Path_85" class="st3" d="M423.4,80.5h-79c-0.8,0.2-1.3,1-1.1,1.8c0.1,0.6,0.6,1,1.1,1.1h79c0.8-0.2,1.3-1,1.1-1.8
		C424.3,81.1,423.9,80.7,423.4,80.5z"/>
	<path id="Path_86" class="st0" d="M494.4,111.9H380.1c-1.1,0-2.2-0.3-3.2-0.9l-0.1,0V35.1c0-3,2.5-5.4,5.5-5.4h106.6
		c3,0,5.5,2.4,5.5,5.4V111.9z"/>
	<ellipse id="Ellipse_11" class="st3" cx="402.4" cy="52.9" rx="11.7" ry="11.4"/>
	<path id="Path_87" class="st3" d="M447.8,46.8h-21.7c-0.8,0-1.5,0.6-1.5,1.4c0,0.8,0.6,1.5,1.4,1.5c0,0,0,0,0.1,0h21.7
		c0.8,0,1.5-0.6,1.5-1.4S448.7,46.9,447.8,46.8C447.9,46.8,447.8,46.8,447.8,46.8z"/>
	<path id="Path_88" class="st3" d="M479.3,56.1h-53.5c-0.8,0.1-1.3,0.9-1.2,1.7c0.1,0.6,0.6,1.1,1.2,1.2h53.5
		c0.8-0.1,1.3-0.9,1.2-1.7C480.4,56.7,479.9,56.2,479.3,56.1L479.3,56.1z"/>
	<path id="Path_89" class="st3" d="M475.1,75.7h-79c-0.8,0.2-1.3,1-1.1,1.8c0.1,0.6,0.6,1,1.1,1.1h79c0.8-0.2,1.3-1,1.1-1.8
		C476.1,76.2,475.7,75.8,475.1,75.7z"/>
	<path id="Path_90" class="st3" d="M475.1,84.8h-79c-0.8,0.2-1.3,1-1.1,1.8c0.1,0.6,0.6,1,1.1,1.1h79c0.8-0.2,1.3-1,1.1-1.8
		C476.1,85.3,475.7,84.9,475.1,84.8z"/>
	<path id="Path_91" class="st3" d="M475.1,93.9h-79c-0.8,0.2-1.3,1-1.1,1.8c0.1,0.6,0.6,1,1.1,1.1h79c0.8-0.2,1.3-1,1.1-1.8
		C476.1,94.4,475.7,94,475.1,93.9z"/>
	<path id="Path_92" class="st3" d="M475.1,103h-79c-0.8,0.2-1.3,1-1.1,1.8c0.1,0.6,0.6,1,1.1,1.1h79c0.8-0.2,1.3-1,1.1-1.8
		C476.1,103.5,475.7,103.1,475.1,103z"/>
	<path id="Path_93" class="st4" d="M497.6,111.1H380.1c-1.1,0-2.2-0.4-3.1-1.1c-0.1-0.1-0.1-0.1-0.2-0.2l-9.9-8.5L351,87.8
		c-1-0.9-2.4-1.4-3.8-1.4h-28.7c-3.1,0-5.6,2.4-5.7,5.5v126.4c0,3.1,2.6,5.6,5.7,5.5h179.1c3.1,0,5.6-2.4,5.7-5.5V116.6
		C503.2,113.5,500.7,111.1,497.6,111.1L497.6,111.1z"/>
	<ellipse id="Ellipse_12" class="st0" cx="261.2" cy="113.2" rx="17.9" ry="17.4"/>
	<path id="Path_94" class="st0" d="M261.1,223.6h-4.9c-1.3,0-2.3-1-2.3-2.3v-40c0-1.3,1.1-2.3,2.3-2.3h4.9c1.3,0,2.3,1,2.3,2.3v40
		C263.4,222.6,262.3,223.7,261.1,223.6L261.1,223.6z"/>
	<path id="Path_95" class="st0" d="M271.7,223.6h-4.9c-1.3,0-2.3-1-2.3-2.3v-40c0-1.3,1.1-2.3,2.3-2.3h4.9c1.3,0,2.3,1,2.3,2.3v40
		C274.1,222.6,273,223.7,271.7,223.6L271.7,223.6z"/>
	<path id="Path_96" class="st1" d="M289.6,172.6c0,14.2-13.7,18.7-28.3,18.7c-14.6,0-24.5-4.6-24.5-18.7s9.8-38.3,24.4-38.3
		C275.8,134.2,289.6,158.4,289.6,172.6z"/>
	<path id="Path_98" class="st1" d="M459.8,201.4h-98.2c-2.7,0-5-2.1-5-4.9v-52.6c0-2.7,2.3-4.9,5-4.9h98.2c2.7,0,5,2.1,5,4.9v52.6
		C464.8,199.3,462.6,201.5,459.8,201.4z M361.6,139.7c-2.4,0-4.3,1.9-4.3,4.2v52.6c0,2.4,2,4.3,4.3,4.2h98.2c2.4,0,4.3-1.9,4.3-4.2
		v-52.6c0-2.4-2-4.3-4.3-4.2L361.6,139.7z"/>
	<ellipse id="Ellipse_13" class="st1" cx="377.5" cy="158.5" rx="11.7" ry="11.4"/>
	<path id="Path_99" class="st1" d="M422.9,152.4h-21.7c-0.8,0-1.5,0.6-1.5,1.4c0,0.8,0.6,1.5,1.4,1.5c0,0,0,0,0.1,0h21.7
		c0.8,0,1.5-0.6,1.5-1.4C424.4,153.1,423.8,152.5,422.9,152.4C423,152.4,423,152.4,422.9,152.4z"/>
	<path id="Path_100" class="st1" d="M454.4,161.7h-53.5c-0.8,0.1-1.3,0.9-1.2,1.7c0.1,0.6,0.6,1.1,1.2,1.2h53.5
		c0.8-0.1,1.3-0.9,1.2-1.7C455.5,162.3,455.1,161.8,454.4,161.7L454.4,161.7z"/>
	<path id="Path_101" class="st1" d="M450.2,181.3h-79c-0.8,0.2-1.3,1-1.1,1.8c0.1,0.6,0.6,1,1.1,1.1h79c0.8-0.2,1.3-1,1.1-1.8
		C451.2,181.8,450.8,181.4,450.2,181.3z"/>
	<path id="Path_102" class="st1" d="M450.2,190.4h-79c-0.8,0.2-1.3,1-1.1,1.8c0.1,0.6,0.6,1,1.1,1.1h79c0.8-0.2,1.3-1,1.1-1.8
		C451.2,190.9,450.8,190.5,450.2,190.4z"/>
	<path id="Path_103" class="st1" d="M246.9,108.4c1.4-2,3.8-2.9,6.2-3.1c2.7-0.1,5.4,0.1,8,0.8c2.9,0.5,6,1.1,8.9,0.4
		c2.6-0.6,4.8-2.3,6-4.7c1.1-2.3,1.3-4.9,0.7-7.3c-0.8-2.6-2.3-4.9-4.5-6.6c-4.2-3.5-10-5.1-15.5-5c-5.5,0.1-10.8,1.9-15.2,5.2
		c-4.3,3.3-7.4,8-8.7,13.3c-1.3,5.2-0.9,10.8,1.2,15.7c1.2,2.7,3,5.2,4.3,7.8c1.3,2.5,2.2,5.3,1.4,8.1c-0.7,2.5-2.7,4.5-5.2,5.2
		c-2.3,0.6-4.8-0.4-6.1-2.4c-1.3-1.9-1.3-4.5,0.6-6c1-0.8,2.2-1.2,3.5-1.1c1.3,0.1,2.4,0.7,3.2,1.7c0.8,1,1.1,2.2,1,3.4
		c-0.1,0.6,0.9,0.9,1,0.3c0.4-2.7-1.1-5.3-3.7-6.1c-2.6-0.9-5.5,0.2-6.8,2.6c-1,2.1-0.6,4.6,0.9,6.4c1.6,2,4.1,2.8,6.5,2.3
		c2.6-0.7,4.8-2.5,5.8-5c1.1-2.7,0.6-5.6-0.5-8.2c-1.2-2.8-3-5.3-4.4-8c-1.3-2.4-2.1-5.1-2.4-7.8c-0.6-5.5,0.7-11,3.6-15.6
		c3.1-4.6,7.6-8,13-9.6c5.3-1.7,11-1.5,16.3,0.4c5.1,2,10,6.2,10,11.9c0,2.5-1,4.9-2.9,6.6c-2.3,1.9-5.5,2.1-8.4,1.8
		c-2.9-0.3-5.7-1.1-8.6-1.3c-2.6-0.3-5.2,0.1-7.5,1.2c-1,0.6-1.9,1.4-2.6,2.4C245.7,108.5,246.6,109,246.9,108.4L246.9,108.4z"/>
	<path id="Path_104" class="st0" d="M241.8,190c-0.1,0-0.2,0-0.4,0l-4.9-0.7c-1.3-0.2-2.1-1.3-2-2.6c0,0,0,0,0,0l6.2-39.5
		c0.2-1.3,1.4-2.1,2.7-1.9l4.9,0.7c1.3,0.2,2.1,1.3,2,2.6c0,0,0,0,0,0l-6.2,39.5C243.9,189.1,242.9,190,241.8,190L241.8,190z"/>
	<path id="Path_105" class="st1" d="M247.6,163c-0.2,0-0.3,0-0.5-0.1l-9.1-1.8c-0.6-0.1-1.1-0.5-1.5-1c-0.3-0.5-0.5-1.1-0.3-1.7
		l4-12.8c0.9-2.8,3.7-4.5,6.6-4l0,0.2l0-0.2c3,0.5,5.1,3.2,4.8,6.3l-1.7,13.2C249.6,162.3,248.7,163,247.6,163L247.6,163z"/>
	<path id="Path_106" class="st5" d="M290.8,223.8h-52.4c-0.2,0-0.3-0.1-0.3-0.3s0.1-0.3,0.3-0.3h52.4c0.2,0,0.3,0.1,0.3,0.3
		S291,223.8,290.8,223.8L290.8,223.8z"/>
</g>
</svg>
