<?xml version="1.0" encoding="utf-8"?>
<!-- Generator: Adobe Illustrator 24.3.0, SVG Export Plug-In . SVG Version: 6.00 Build 0)  -->
<svg version="1.1" id="_x32_9e4b1a0-13d0-4a0f-9be2-3c3977a6a4ba"
	 xmlns="http://www.w3.org/2000/svg" xmlns:xlink="http://www.w3.org/1999/xlink" x="0px" y="0px" viewBox="0 0 730 260"
	 style="enable-background:new 0 0 730 260;" xml:space="preserve">
<style type="text/css">
	.st0{fill:url(#SVGID_1_);}
	.st1{fill:#FFFFFF;}
	.st2{opacity:0.2;fill:#ABEDAE;enable-background:new    ;}
	.st3{fill:url(#SVGID_2_);}
	.st4{fill:url(#SVGID_3_);}
	.st5{fill:#ABEDAE;}
	.st6{fill:#E0E0E0;}
	.st7{fill:#F5F5F5;}
	.st8{opacity:0.2;fill:#69F0AE;enable-background:new    ;}
	.st9{fill:#69F0AE;}
	.st10{fill:url(#SVGID_4_);}
	.st11{fill:url(#SVGID_5_);}
	.st12{opacity:0.2;enable-background:new    ;}
	.st13{fill:url(#SVGID_6_);}
	.st14{opacity:0.2;fill:#FFFFFF;enable-background:new    ;}
</style>
<g>
	
		<linearGradient id="SVGID_1_" gradientUnits="userSpaceOnUse" x1="385.0102" y1="5.9182" x2="385.0102" y2="256.039" gradientTransform="matrix(1 0 0 -1 0 260.1599)">
		<stop  offset="0" style="stop-color:#808080;stop-opacity:0.25"/>
		<stop  offset="0.54" style="stop-color:#808080;stop-opacity:0.12"/>
		<stop  offset="1" style="stop-color:#808080;stop-opacity:0.1"/>
	</linearGradient>
	<rect x="274.8" y="4.1" class="st0" width="220.5" height="250.1"/>
	<rect x="278.1" y="8.9" class="st1" width="213.4" height="240.9"/>
	<rect x="256.6" y="48.6" class="st2" width="121.2" height="77.1"/>
	
		<linearGradient id="SVGID_2_" gradientUnits="userSpaceOnUse" x1="304.2294" y1="143.3945" x2="304.2294" y2="222.3203" gradientTransform="matrix(1 0 0 -1 0 260.1599)">
		<stop  offset="0" style="stop-color:#808080;stop-opacity:0.25"/>
		<stop  offset="0.54" style="stop-color:#808080;stop-opacity:0.12"/>
		<stop  offset="1" style="stop-color:#808080;stop-opacity:0.1"/>
	</linearGradient>
	<rect x="234.8" y="37.8" class="st3" width="139" height="78.9"/>
	<rect x="236.2" y="49.3" class="st1" width="135.6" height="65.6"/>
	
		<linearGradient id="SVGID_3_" gradientUnits="userSpaceOnUse" x1="245.4963" y1="180.4466" x2="292.5551" y2="180.4466" gradientTransform="matrix(1 0 0 -1 0 260.1599)">
		<stop  offset="0" style="stop-color:#808080;stop-opacity:0.25"/>
		<stop  offset="0.54" style="stop-color:#808080;stop-opacity:0.12"/>
		<stop  offset="1" style="stop-color:#808080;stop-opacity:0.1"/>
	</linearGradient>
	<rect x="245.5" y="54.9" class="st4" width="47.1" height="49.7"/>
	<rect x="247" y="56" class="st5" width="44.5" height="47.4"/>
	<path class="st1" d="M281.6,74.7c-0.3-2.8-0.8-5.6-1.9-8.3c-1.1-2.6-2.8-5.1-5.2-6.6c-0.9-0.6-1.9-0.9-2.9-1
		c-1.9-0.1-3.6,1.2-4.6,2.8c-0.3,0.6-0.6,1.1-0.9,1.7c-1.9,0.3-3.2,1.9-3.4,3.7c-5.3,2.2-7.7,8.3-5.5,13.6c1.3,3,3.8,5.2,6.9,6v1.8
		c-4.6,1.2-7.8,5.3-7.8,10v4.8h20.8v-4.8c0-4.7-3.2-8.8-7.8-10v-1.8c4.6-1.2,7.8-5.3,7.8-10c0,0,0,0,0-0.1l1.2,2.6
		c1.1,2.5,2.2,5.1,1.8,7.8C282.3,83.4,282.1,78.9,281.6,74.7z"/>
	<rect x="236.2" y="39.3" class="st5" width="135.6" height="10"/>
	<rect x="309.6" y="69.9" class="st6" width="51.5" height="3.3"/>
	<rect x="309.6" y="84" class="st7" width="51.5" height="3.3"/>
	<rect x="309.2" y="76.9" class="st2" width="30.4" height="3.3"/>
	<rect x="309.2" y="91" class="st8" width="20.8" height="3.3"/>
	<rect x="333.7" y="91" class="st9" width="20.8" height="3.3"/>
	<rect x="296.3" y="143.4" class="st6" width="179" height="6.3"/>
	<rect x="296.3" y="157.2" class="st6" width="59.7" height="6.3"/>
	<rect x="415.6" y="157.2" class="st9" width="59.7" height="6.3"/>
	<rect x="296.3" y="170.9" class="st6" width="179" height="6.3"/>
	<rect x="296.3" y="184.6" class="st6" width="179" height="6.3"/>
	
		<linearGradient id="SVGID_4_" gradientUnits="userSpaceOnUse" x1="304.9711" y1="54.8287" x2="304.9711" y2="62.6104" gradientTransform="matrix(1 0 0 -1 0 260.1599)">
		<stop  offset="0" style="stop-color:#808080;stop-opacity:0.25"/>
		<stop  offset="0.54" style="stop-color:#808080;stop-opacity:0.12"/>
		<stop  offset="1" style="stop-color:#808080;stop-opacity:0.1"/>
	</linearGradient>
	<rect x="295.5" y="197.5" class="st10" width="18.9" height="7.8"/>
	<rect x="296.3" y="198.3" class="st5" width="17.8" height="6.3"/>
	<rect x="376.3" y="198.3" class="st9" width="17.8" height="6.3"/>
	<rect x="457.5" y="198.3" class="st9" width="17.8" height="6.3"/>
	
		<linearGradient id="SVGID_5_" gradientUnits="userSpaceOnUse" x1="424.6589" y1="17.7717" x2="424.6589" y2="41.4886" gradientTransform="matrix(1 0 0 -1 0 260.1599)">
		<stop  offset="0" style="stop-color:#808080;stop-opacity:0.25"/>
		<stop  offset="0.54" style="stop-color:#808080;stop-opacity:0.12"/>
		<stop  offset="1" style="stop-color:#808080;stop-opacity:0.1"/>
	</linearGradient>
	<rect x="371.9" y="218.7" class="st11" width="105.6" height="23.7"/>
	<rect x="373.7" y="221.3" class="st5" width="101.5" height="18.2"/>
	<rect x="373.7" y="221.3" class="st12" width="101.5" height="18.2"/>
	
		<linearGradient id="SVGID_6_" gradientUnits="userSpaceOnUse" x1="443.9274" y1="174.5182" x2="443.9274" y2="225.6554" gradientTransform="matrix(1 0 0 -1 0 260.1599)">
		<stop  offset="0" style="stop-color:#808080;stop-opacity:0.25"/>
		<stop  offset="0.54" style="stop-color:#808080;stop-opacity:0.12"/>
		<stop  offset="1" style="stop-color:#808080;stop-opacity:0.1"/>
	</linearGradient>
	<rect x="410.4" y="34.5" class="st13" width="67.1" height="51.1"/>
	<rect x="413" y="37.8" class="st5" width="62.3" height="44.5"/>
	<rect x="413" y="37.8" class="st14" width="62.3" height="44.5"/>
</g>
</svg>
